HIERARCHY
ROOT Hips
{
 OFFSET 0.000000 0.000000 0.000000
 CHANNELS 6 Xposition Yposition Zposition Yrotation Xrotation Zrotation
 JOINT Chest
 {
  OFFSET 0.000000 9.585900 0.002600
  CHANNELS 3 Yrotation Xrotation Zrotation
  JOINT Chest2
  {
   OFFSET 0.000000 9.601200 -0.005300
   CHANNELS 3 Yrotation Xrotation Zrotation
   JOINT Chest3
   {
    OFFSET 0.000000 9.561800 0.000000
    CHANNELS 3 Yrotation Xrotation Zrotation
    JOINT Chest4
    {
     OFFSET 0.000000 9.552100 0.000000
     CHANNELS 3 Yrotation Xrotation Zrotation
     JOINT Neck
     {
      OFFSET 0.000000 14.453000 0.000000
      CHANNELS 3 Yrotation Xrotation Zrotation
      JOINT Head
      {
       OFFSET 0.000000 8.936500 -0.011300
       CHANNELS 3 Yrotation Xrotation Zrotation
       End Site
       {
        OFFSET 0.000000 17.073600 -0.006000
       }
      }
     }
     JOINT RightCollar
     {
      OFFSET -2.921100 9.558500 0.000000
      CHANNELS 3 Yrotation Xrotation Zrotation
      JOINT RightShoulder
      {
       OFFSET -13.519700 0.000000 0.000000
       CHANNELS 3 Yrotation Xrotation Zrotation
       JOINT RightElbow
       {
        OFFSET 0.000000 -29.696600 0.000000
        CHANNELS 3 Yrotation Xrotation Zrotation
        JOINT RightWrist
        {
         OFFSET 0.000000 -24.004700 0.000000
         CHANNELS 3 Yrotation Xrotation Zrotation
         End Site
         {
          OFFSET 0.000000 -17.728500 0.000000
         }
        }
       }
      }
     }
     JOINT LeftCollar
     {
      OFFSET 2.921100 9.558500 0.000000
      CHANNELS 3 Yrotation Xrotation Zrotation
      JOINT LeftShoulder
      {
       OFFSET 13.519700 0.000000 0.000000
       CHANNELS 3 Yrotation Xrotation Zrotation
       JOINT LeftElbow
       {
        OFFSET 0.000000 -29.696600 0.000000
        CHANNELS 3 Yrotation Xrotation Zrotation
        JOINT LeftWrist
        {
         OFFSET 0.000000 -24.004700 0.000000
         CHANNELS 3 Yrotation Xrotation Zrotation
         End Site
         {
          OFFSET 0.000000 -17.728500 0.000000
         }
        }
       }
      }
     }
    }
   }
  }
 }
 JOINT RightHip
 {
  OFFSET -7.771700 -0.012900 -0.001300
  CHANNELS 3 Yrotation Xrotation Zrotation
  JOINT RightKnee
  {
   OFFSET 0.000000 -40.869800 0.001200
   CHANNELS 3 Yrotation Xrotation Zrotation
   JOINT RightAnkle
   {
    OFFSET 0.000000 -39.717900 0.002100
    CHANNELS 3 Yrotation Xrotation Zrotation
    JOINT RightToe
    {
     OFFSET 0.000000 -4.965400 11.033500
     CHANNELS 3 Yrotation Xrotation Zrotation
     End Site
     {
      OFFSET 0.000000 -1.423100 5.872300
     }
    }
   }
  }
 }
 JOINT LeftHip
 {
  OFFSET 7.771700 -0.012900 -0.001300
  CHANNELS 3 Yrotation Xrotation Zrotation
  JOINT LeftKnee
  {
   OFFSET 0.000000 -40.869800 0.001200
   CHANNELS 3 Yrotation Xrotation Zrotation
   JOINT LeftAnkle
   {
    OFFSET 0.000000 -39.717900 0.002100
    CHANNELS 3 Yrotation Xrotation Zrotation
    JOINT LeftToe
    {
     OFFSET 0.000000 -4.965400 11.033500
     CHANNELS 3 Yrotation Xrotation Zrotation
     End Site
     {
      OFFSET 0.000000 -1.423100 5.872300
     }
    }
   }
  }
 }
}
MOTION
Frames: 9
Frame Time: 0.008333
-31.938222 56.983314 96.297315 178.892647 -54.376209 -0.058768 -2.420244 23.243594 2.975594 -0.375904 3.533292 0.414225 -0.586158 5.701226 0.651584 -1.832443 19.730868 2.086886 -1.916644 18.973725 -2.994054 -2.567218 -0.574425 -4.878665 2.866737 -2.854631 -2.507813 33.014226 -42.462281 -20.715545 -141.222022 -42.846924 175.358854 -7.143704 1.729083 -51.264712 -10.816826 -3.476325 -4.957080 -4.676932 -28.956368 -7.026164 -49.939373 -31.819942 18.058965 -25.083108 -5.576524 20.633836 9.352126 -18.536590 -3.499497 -5.735945 75.891714 0.764914 4.062147 -2.132500 3.318497 -0.029866 0.148381 0.014868 -12.280746 -22.630649 -6.593947 48.617687 73.378962 40.247202 -23.498761 -2.332285 -4.190705 -0.084562 -0.767143 -0.035332
-31.936229 56.982663 96.292597 178.893522 -54.348131 -0.066942 -2.444296 23.202458 2.988197 -0.365870 3.535115 0.408371 -0.603603 5.669687 0.661458 -1.853481 19.702935 2.095019 -2.004668 19.111482 -3.023671 -2.722491 -0.320551 -4.905296 2.826993 -2.848238 -2.506114 32.963392 -42.476121 -20.642488 -141.997583 -42.882393 175.873526 -6.963248 2.134803 -51.189821 -10.838984 -3.476535 -4.960784 -4.695726 -28.919611 -7.020789 -49.836126 -31.793525 18.024806 -25.080051 -5.574333 20.611862 9.350642 -18.565510 -3.490861 -5.731156 75.899827 0.764394 4.057599 -2.138740 3.317115 -0.030704 0.146664 0.013723 -12.289536 -22.658759 -6.568617 48.605904 73.394120 40.230924 -23.505966 -2.331208 -4.193562 -0.075632 -0.774099 -0.029217
-31.933720 56.979422 96.289630 178.886164 -54.301904 -0.070231 -2.463107 23.142345 3.001617 -0.354767 3.537578 0.403623 -0.629312 5.625423 0.674611 -1.869407 19.685127 2.096192 -2.088287 19.253860 -3.048354 -2.871144 -0.058021 -4.924575 2.834424 -2.798275 -2.529524 32.872819 -42.539706 -20.571857 -142.790225 -42.936056 176.390131 -6.817438 2.548777 -51.069061 -10.860911 -3.475836 -4.961960 -4.722106 -28.883900 -7.015284 -49.723547 -31.762902 17.991527 -25.075359 -5.572470 20.590129 9.354234 -18.617136 -3.474927 -5.744944 75.909799 0.734676 4.047310 -2.146712 3.327623 -0.026651 0.151533 0.003390 -12.297070 -22.705488 -6.539499 48.599180 73.410436 40.220537 -23.505140 -2.338914 -4.192790 -0.063173 -0.774232 -0.028672
-31.930562 56.979004 96.284600 178.881227 -54.277998 -0.078867 -2.468776 23.111647 3.016556 -0.369103 3.517442 0.410801 -0.619828 5.630052 0.667684 -1.879696 19.670529 2.099809 -2.180948 19.360787 -3.046555 -3.014480 0.210723 -4.938647 2.820877 -2.787698 -2.532434 32.787664 -42.606144 -20.499012 -143.582942 -42.996620 176.905385 -6.693385 2.969711 -50.908477 -10.902769 -3.508961 -4.935326 -4.755057 -28.850990 -7.006548 -49.628534 -31.635046 17.899234 -25.030100 -5.616821 20.668014 9.347922 -18.645031 -3.446628 -5.775903 75.917289 0.680794 4.041316 -2.149211 3.333487 -0.027040 0.146807 0.007613 -12.304576 -22.729038 -6.512826 48.559249 73.441159 40.175471 -23.475141 -2.344786 -4.181088 -0.092314 -0.776741 -0.034617
-31.929728 56.978615 96.279551 178.882085 -54.256039 -0.079385 -2.483946 23.082476 3.016933 -0.384879 3.496885 0.417328 -0.608530 5.634711 0.661497 -1.926718 19.596360 2.116465 -2.251060 19.529020 -3.075447 -3.150605 0.485668 -4.946095 2.805535 -2.747518 -2.541889 32.737320 -42.641176 -20.419241 -144.349421 -43.049786 177.407397 -6.581062 3.377859 -50.727165 -10.908385 -3.487908 -4.950721 -4.796061 -28.819388 -6.990899 -49.519528 -31.536817 17.830284 -24.995661 -5.658640 20.735291 9.350417 -18.668793 -3.442020 -5.771754 75.928375 0.675533 4.034077 -2.151135 3.330089 -0.028623 0.139655 0.015638 -12.307926 -22.752049 -6.504731 48.539560 73.454250 40.154488 -23.460319 -2.342033 -4.183074 -0.093924 -0.781554 -0.032685
-31.929928 56.979446 96.273748 178.885772 -54.244778 -0.078287 -2.515894 23.055862 3.007639 -0.403407 3.467653 0.418947 -0.598800 5.632361 0.660038 -1.962884 19.544721 2.120327 -2.314265 19.701054 -3.097049 -3.279408 0.767344 -4.946214 2.739745 -2.762222 -2.525788 32.729918 -42.622909 -20.323012 -145.060596 -43.088555 177.875600 -6.468363 3.749425 -50.548380 -10.909216 -3.462968 -4.964458 -4.842808 -28.789468 -6.968997 -49.397342 -31.495082 17.792417 -24.984406 -5.668266 20.748325 9.351861 -18.678066 -3.442338 -5.743805 75.937909 0.695676 4.022140 -2.158635 3.332357 -0.027909 0.139094 0.013080 -12.310077 -22.764282 -6.503474 48.525489 73.463578 40.139181 -23.453783 -2.338043 -4.192905 -0.097141 -0.785334 -0.027966
-31.930188 56.978213 96.269652 178.888624 -54.219955 -0.079840 -2.548742 23.011348 2.998072 -0.391093 3.472080 0.417673 -0.618788 5.596869 0.662205 -1.980996 19.515173 2.121954 -2.380883 19.856104 -3.104698 -3.402285 1.053846 -4.940896 2.728620 -2.730098 -2.527763 32.662336 -42.672242 -20.252273 -145.693966 -43.111587 178.296987 -6.345207 4.068042 -50.394864 -10.923390 -3.452719 -4.965765 -4.888740 -28.763420 -6.946643 -49.297848 -31.390967 17.724513 -24.955162 -5.692914 20.793001 9.354750 -18.706970 -3.440752 -5.717835 75.950340 0.712228 4.014998 -2.154731 3.325763 -0.030034 0.129822 0.020909 -12.316980 -22.791568 -6.494069 48.526342 73.470248 40.137138 -23.458505 -2.338056 -4.198651 -0.092757 -0.787000 -0.024918
-31.931206 56.976767 96.266034 178.879575 -54.194467 -0.071661 -2.575091 22.967473 2.990302 -0.393792 3.459585 0.417335 -0.622954 5.577816 0.661906 -1.997299 19.483432 2.120148 -2.443564 20.013025 -3.108683 -3.518898 1.343876 -4.930471 2.670104 -2.733484 -2.518681 32.625633 -42.693238 -20.171569 -146.247401 -43.126173 178.672839 -6.218168 4.320854 -50.283017 -10.911310 -3.407059 -4.985710 -4.971986 -28.768946 -6.901761 -49.210192 -31.286185 17.656472 -24.918349 -5.709032 20.835134 9.375025 -18.735763 -3.437691 -5.750879 75.961415 0.674907 4.006056 -2.157757 3.334733 -0.026771 0.129080 0.018659 -12.315506 -22.820445 -6.485865 48.531162 73.481632 40.135673 -23.450529 -2.337614 -4.190861 -0.098468 -0.789991 -0.027964
-31.930901 56.976880 96.261717 178.864770 -54.181165 -0.071631 -2.615847 22.909153 2.985653 -0.372751 3.472546 0.416180 -0.655793 5.502623 0.663117 -1.988790 19.509650 2.111049 -2.503026 20.171644 -3.108657 -3.630658 1.637059 -4.914058 2.608652 -2.735312 -2.507130 32.591784 -42.720489 -20.100783 -146.730202 -43.137629 179.007934 -6.099164 4.508327 -50.222572 -10.943801 -3.405626 -4.969182 -4.979846 -28.735375 -6.896448 -49.129014 -31.204899 17.601699 -24.894078 -5.720471 20.850783 9.384613 -18.751365 -3.422282 -5.749753 75.967220 0.670767 4.004414 -2.159235 3.337852 -0.031978 0.129484 0.015962 -12.313186 -22.830790 -6.464308 48.535683 73.495923 40.134778 -23.450659 -2.351711 -4.181026 -0.123760 -0.783368 -0.034702
